PathFileType	4	(X/Y/Z)	Test12_result.trc
DataRate	CameraRate	NumFrames	NumMarkers	Units	OrigDataRate	OrigDataStartFrame	OrigNumFrames
100	100	5	56	mm	100	185	493
Frame#	Time	PELO			PELA			PELL			PELP			LFEO			LFEA			LFEL			LFEP			LTIO			LTIA			LTIL			LTIP			LFOO			LFOA			LFOL			LFOP			LTOO			LTOA			LTOL			LTOP			RFEO			RFEA			RFEL			RFEP			RTIO			RTIA			RTIL			RTIP			RFOO			RFOA			RFOL			RFOP			RTOO			RTOA			RTOL			RTOP			LASI			RASI			LPSI			RPSI			LTHI			LKNE			LTIB			LANK			LHEE			LTOE			LFMH			LVMH			RTHI			RKNE			RTIB			RANK			RHEE			RTOE			RFMH			RVMH		
		X1	Y1	Z1	X2	Y2	Z2	X3	Y3	Z3	X4	Y4	Z4	X5	Y5	Z5	X6	Y6	Z6	X7	Y7	Z7	X8	Y8	Z8	X9	Y9	Z9	X10	Y10	Z10	X11	Y11	Z11	X12	Y12	Z12	X13	Y13	Z13	X14	Y14	Z14	X15	Y15	Z15	X16	Y16	Z16	X17	Y17	Z17	X18	Y18	Z18	X19	Y19	Z19	X20	Y20	Z20	X21	Y21	Z21	X22	Y22	Z22	X23	Y23	Z23	X24	Y24	Z24	X25	Y25	Z25	X26	Y26	Z26	X27	Y27	Z27	X28	Y28	Z28	X29	Y29	Z29	X30	Y30	Z30	X31	Y31	Z31	X32	Y32	Z32	X33	Y33	Z33	X34	Y34	Z34	X35	Y35	Z35	X36	Y36	Z36	X37	Y37	Z37	X38	Y38	Z38	X39	Y39	Z39	X40	Y40	Z40	X41	Y41	Z41	X42	Y42	Z42	X43	Y43	Z43	X44	Y44	Z44	X45	Y45	Z45	X46	Y46	Z46	X47	Y47	Z47	X48	Y48	Z48	X49	Y49	Z49	X50	Y50	Z50	X51	Y51	Z51	X52	Y52	Z52	X53	Y53	Z53	X54	Y54	Z54	X55	Y55	Z55	X56	Y56	Z56
	
247	2.460000	-1207.788096	895.192120	-179.473781	-1046.862275	876.516533	-185.746320	-1213.495899	900.399653	-341.416772	-1188.932367	1056.156009	-174.962207	-1125.347719	498.195668	-295.867811	-725.987127	588.319106	-321.108725	-1157.715104	527.390522	-703.725497	-1213.164943	897.286916	-260.331685	-1358.634933	177.092463	-276.806094	-1055.436857	-44.938813	-306.317966	-1393.123258	179.886241	-652.179556	-1137.324223	481.710934	-294.889224	-1267.686629	105.815231	-305.169173	-1178.845349	246.174092	-309.642468	-1291.445615	115.610744	-469.361669	-1406.093905	194.229045	-279.865412	-1221.550889	76.343958	-313.603757	-1191.937130	123.130237	-315.094930	-1229.470579	79.609068	-368.334555	-1267.686693	105.815267	-305.169143	-1198.905024	472.706823	-134.502413	-783.098573	470.062403	-62.902371	-1127.341683	508.667170	-548.766796	-1202.411144	893.097486	-98.615863	-1296.230566	86.249457	-180.642667	-935.326847	-13.106802	-109.736563	-1216.500401	110.556507	-552.399013	-1203.805430	453.248357	-136.825571	-1185.003128	65.476588	-153.577596	-1174.424317	226.747747	-136.771202	-1158.814401	80.398164	-313.246596	-1345.018616	78.580596	-178.598557	-1131.664931	61.108546	-145.237311	-1128.138600	114.865588	-139.635169	-1122.935344	66.082411	-198.460308	-1185.003375	65.476607	-153.577632	-1161.057499	982.419259	-308.731958	-1151.885115	974.050874	-48.492160	-1352.729499	1000.331377	-222.804174	-1349.040795	1001.294130	-120.391421	-1160.319798	657.888816	-365.367455	-1129.924446	502.323819	-353.539367	-1277.960416	323.599640	-343.496569	-1372.376962	176.293647	-317.542855	-1413.230059	166.343099	-264.799029	-1269.647774	77.967083	-293.787497	-1234.319662	56.145477	-279.656490	-1274.804775	71.250019	-337.640321	-1218.003764	681.886130	-21.745520	-1208.657355	467.806211	-78.047729	-1265.725773	292.655054	-81.186940	-1308.547670	74.335899	-141.204629	-1352.953716	52.670855	-194.439622	-1182.397142	40.334899	-169.325975	-1133.564674	37.804568	-198.765519	-1172.082275	31.000147	-123.735839
248	2.470000	-1193.782167	895.909906	-178.905992	-1032.845996	876.867281	-183.614782	-1197.862432	901.479589	-340.886150	-1174.595156	1056.818632	-173.856361	-1103.390107	500.544034	-294.111086	-705.182783	597.320880	-313.659260	-1130.429725	529.313999	-702.470842	-1198.347339	898.191466	-259.808740	-1317.944690	165.483359	-277.067529	-1001.501939	-38.701275	-307.578717	-1352.345132	168.392459	-653.327882	-1114.380716	483.380611	-293.238067	-1222.084647	100.685050	-304.849838	-1143.124458	246.872924	-308.659504	-1245.357131	108.972941	-469.194113	-1366.458972	179.301833	-280.438762	-1173.959946	74.479451	-312.986853	-1147.639867	123.208733	-314.256809	-1181.717456	77.242026	-367.768258	-1222.084746	100.685093	-304.849818	-1195.699482	472.779436	-134.517274	-780.253932	459.814232	-58.845329	-1119.198799	507.524400	-548.559183	-1189.216757	893.628476	-98.003206	-1295.307473	86.848998	-181.129081	-936.058788	-15.060775	-105.059095	-1210.312236	109.695948	-551.919185	-1200.713428	453.352719	-136.863546	-1184.271517	65.649649	-153.612807	-1173.181398	226.866251	-136.614308	-1157.353331	80.619860	-313.155799	-1344.131114	79.354793	-179.298387	-1130.985237	61.081213	-145.050989	-1127.288442	114.820076	-139.384821	-1122.012504	66.071278	-198.231995	-1184.271710	65.649661	-153.612836	-1145.559556	983.303179	-307.467050	-1139.004359	974.355186	-47.237039	-1337.934470	1001.367024	-224.010705	-1335.274233	1002.349116	-121.607208	-1140.245538	660.639555	-364.554360	-1107.212769	504.611296	-351.841904	-1245.928827	316.960909	-342.989837	-1331.586733	164.112413	-317.822650	-1372.255107	151.460978	-265.236849	-1222.744227	73.298362	-293.399516	-1186.081295	53.755169	-279.062356	-1227.227650	66.477987	-337.194850	-1210.681693	682.410358	-21.902496	-1206.111162	468.050578	-78.165789	-1264.594032	293.403148	-81.653273	-1308.250084	75.120141	-141.836397	-1352.619228	53.690844	-195.290194	-1182.199744	40.721025	-169.425860	-1133.270743	37.800458	-198.617701	-1172.160678	31.017374	-123.880730
249	2.480000	-1179.845893	896.229002	-178.372287	-1018.918279	876.796538	-181.523515	-1182.306297	902.123809	-340.373684	-1160.314036	1057.079512	-172.815903	-1081.980507	502.420101	-292.387504	-684.991896	605.475163	-307.309550	-1104.694097	530.719137	-701.197704	-1183.603041	898.679161	-259.311674	-1276.434336	154.107905	-277.288296	-947.407361	-30.942058	-308.731077	-1310.862665	156.991775	-654.520034	-1091.917381	484.621173	-291.615982	-1176.132431	95.959453	-304.102718	-1107.277088	247.187386	-307.445228	-1198.421359	102.476450	-468.661882	-1325.745895	164.586681	-281.117295	-1126.261384	73.083705	-311.764516	-1103.309588	123.493003	-312.878723	-1133.691023	75.256006	-366.617561	-1176.132550	95.959481	-304.102715	-1192.312679	472.784862	-134.544981	-777.605577	449.769726	-54.764322	-1110.878970	506.114172	-548.229935	-1176.088389	893.778883	-97.432843	-1294.399111	87.463180	-181.658021	-936.986345	-17.172092	-100.344595	-1204.058999	108.733775	-551.374255	-1197.450178	453.393442	-136.915932	-1183.577597	65.773261	-153.664788	-1171.885148	226.927259	-136.478455	-1155.884441	80.763758	-313.073044	-1343.261541	80.173200	-180.051625	-1130.349722	60.973230	-144.869212	-1126.452171	114.691230	-139.140441	-1121.118666	65.970054	-198.005308	-1183.577658	65.773246	-153.664821	-1130.135810	983.751577	-306.257373	-1126.183629	974.282648	-46.032164	-1323.193180	1002.018402	-225.235460	-1321.558392	1003.037761	-122.853049	-1120.750129	662.865272	-363.704180	-1085.190437	506.419320	-350.160499	-1213.660769	310.108692	-342.510873	-1289.950132	152.139148	-318.061086	-1330.290872	136.810563	-265.696833	-1175.556142	69.048774	-292.534029	-1137.666483	52.012851	-277.980287	-1179.226368	62.205286	-336.361229	-1203.308327	682.783905	-22.069246	-1203.383763	468.253599	-78.303065	-1263.384330	294.169740	-82.146902	-1307.980303	75.933921	-142.522267	-1352.309341	54.755861	-196.185937	-1182.100034	41.081182	-169.550596	-1133.023773	37.780401	-198.486618	-1172.299427	31.042047	-124.049650
250	2.490000	-1165.961209	896.154709	-177.874458	-1005.059692	876.320990	-179.480881	-1166.817415	902.330213	-339.881864	-1146.081046	1056.945712	-171.850310	-1061.069861	503.819542	-290.685768	-665.335798	612.815183	-302.198416	-1080.595606	531.484119	-699.917986	-1168.918009	898.751440	-258.842496	-1234.181687	143.185822	-277.464715	-893.468756	-21.556696	-310.031260	-1268.965799	146.026667	-655.718048	-1069.893124	485.439249	-290.011993	-1129.891666	91.882422	-302.974690	-1071.373209	247.399341	-306.040002	-1150.707221	96.473909	-467.790838	-1284.038979	150.299901	-281.875310	-1078.509300	72.409932	-310.007814	-1059.003150	124.248890	-311.029579	-1085.447795	73.940428	-364.946520	-1129.891758	91.882430	-302.974708	-1188.667840	472.691741	-134.567119	-775.043364	439.956735	-50.611153	-1102.287518	504.399256	-547.773161	-1163.004082	893.557950	-96.906370	-1293.511705	88.083628	-182.183737	-938.115739	-19.509795	-95.659897	-1197.861910	107.638669	-550.744862	-1193.943061	453.340332	-136.962923	-1182.917506	65.850279	-153.722432	-1170.540076	226.934542	-136.363991	-1154.456512	80.826212	-312.996755	-1342.414576	81.023322	-180.796505	-1129.751767	60.792565	-144.697764	-1125.625938	114.487324	-138.911626	-1120.264763	65.784539	-197.789208	-1182.917440	65.850241	-153.722474	-1114.779359	983.767621	-305.107011	-1113.404151	973.848446	-44.888793	-1308.496296	1002.280134	-226.473467	-1307.881839	1003.354896	-124.122948	-1101.819776	664.518577	-362.828278	-1063.827869	507.727090	-348.488541	-1181.178393	303.206427	-342.027818	-1247.566604	140.613672	-318.247214	-1287.441238	122.646193	-266.171070	-1128.157827	65.485580	-291.245158	-1089.230947	51.065504	-276.433216	-1130.944471	58.622478	-335.146302	-1195.839260	682.987777	-22.232482	-1200.400720	468.384925	-78.441862	-1262.038548	294.931879	-82.625391	-1307.734000	76.772165	-143.212626	-1352.025121	55.858852	-197.075282	-1182.094601	41.417893	-169.688473	-1132.835348	37.743636	-198.372559	-1172.493606	31.070050	-124.222872
251	2.500000	-1152.109705	895.697777	-177.413342	-991.250229	875.461926	-177.490494	-1151.381601	902.103188	-339.412481	-1131.886854	1056.429697	-170.967088	-1040.601307	504.752196	-288.993054	-646.140988	619.393790	-298.470849	-1058.217434	531.497382	-698.633661	-1154.275888	898.415732	-258.402443	-1191.295435	132.936729	-277.578677	-840.015020	-10.479709	-311.658395	-1226.948702	135.748197	-656.863393	-1048.260933	485.854265	-288.412943	-1083.472141	88.682591	-301.520188	-1035.505794	247.763318	-304.481135	-1102.371841	91.318507	-466.609045	-1241.452465	136.666449	-282.664245	-1030.812073	72.687986	-307.805506	-1014.823302	125.714888	-308.792451	-1037.111936	73.566646	-362.835113	-1083.472224	88.682595	-301.520228	-1184.692241	472.470470	-134.566640	-772.457679	430.403005	-46.343537	-1093.338645	502.347292	-547.183594	-1149.943340	892.979770	-96.424221	-1292.651546	88.702620	-182.655107	-939.428082	-22.133007	-91.129043	-1191.906089	106.394196	-550.031439	-1190.123247	453.165027	-136.985726	-1182.280312	65.899562	-153.781445	-1169.162462	226.910332	-136.284966	-1153.132188	80.819235	-312.936927	-1341.594248	81.886850	-181.459831	-1129.175571	60.570446	-144.555328	-1124.802947	114.240710	-138.723178	-1119.459523	65.543665	-197.607154	-1182.280199	65.899534	-153.781484	-1099.479384	983.360494	-304.017941	-1100.648931	973.072151	-43.815305	-1293.832044	1002.153209	-227.720566	-1294.231884	1003.300962	-125.411702	-1083.435457	665.567590	-361.941264	-1043.088000	508.527509	-346.817110	-1148.520591	296.414418	-341.503925	-1204.564663	129.765837	-318.356967	-1243.835209	109.212099	-266.636113	-1080.668254	62.846289	-289.599228	-1040.949476	51.033571	-274.468313	-1082.557634	55.901082	-333.577560	-1188.232901	683.005235	-22.378908	-1197.090851	468.415526	-78.565891	-1260.487109	295.661547	-83.045434	-1307.499824	77.628895	-143.849572	-1351.768004	56.992669	-197.892535	-1182.124885	41.729454	-169.828097	-1132.707959	37.692002	-198.276672	-1172.726461	31.096567	-124.382457
